<svg aria-roledescription="flowchart-v2" role="graphics-document document" viewBox="-8 -8 2379.140625 295.1977844238281" style="max-width: 2379.14px; background-color: transparent;" xmlns:xlink="http://www.w3.org/1999/xlink" xmlns="http://www.w3.org/2000/svg" width="100%" id="my-svg"><style>#my-svg{font-family:"trebuchet ms",verdana,arial,sans-serif;font-size:16px;fill:#333;}#my-svg .error-icon{fill:#552222;}#my-svg .error-text{fill:#552222;stroke:#552222;}#my-svg .edge-thickness-normal{stroke-width:2px;}#my-svg .edge-thickness-thick{stroke-width:3.5px;}#my-svg .edge-pattern-solid{stroke-dasharray:0;}#my-svg .edge-pattern-dashed{stroke-dasharray:3;}#my-svg .edge-pattern-dotted{stroke-dasharray:2;}#my-svg .marker{fill:#333333;stroke:#333333;}#my-svg .marker.cross{stroke:#333333;}#my-svg svg{font-family:"trebuchet ms",verdana,arial,sans-serif;font-size:16px;}#my-svg .label{font-family:"trebuchet ms",verdana,arial,sans-serif;color:#333;}#my-svg .cluster-label text{fill:#333;}#my-svg .cluster-label span,#my-svg p{color:#333;}#my-svg .label text,#my-svg span,#my-svg p{fill:#333;color:#333;}#my-svg .node rect,#my-svg .node circle,#my-svg .node ellipse,#my-svg .node polygon,#my-svg .node path{fill:#ECECFF;stroke:#9370DB;stroke-width:1px;}#my-svg .flowchart-label text{text-anchor:middle;}#my-svg .node .katex path{fill:#000;stroke:#000;stroke-width:1px;}#my-svg .node .label{text-align:center;}#my-svg .node.clickable{cursor:pointer;}#my-svg .arrowheadPath{fill:#333333;}#my-svg .edgePath .path{stroke:#333333;stroke-width:2.0px;}#my-svg .flowchart-link{stroke:#333333;fill:none;}#my-svg .edgeLabel{background-color:#e8e8e8;text-align:center;}#my-svg .edgeLabel rect{opacity:0.5;background-color:#e8e8e8;fill:#e8e8e8;}#my-svg .labelBkg{background-color:rgba(232, 232, 232, 0.5);}#my-svg .cluster rect{fill:#ffffde;stroke:#aaaa33;stroke-width:1px;}#my-svg .cluster text{fill:#333;}#my-svg .cluster span,#my-svg p{color:#333;}#my-svg div.mermaidTooltip{position:absolute;text-align:center;max-width:200px;padding:2px;font-family:"trebuchet ms",verdana,arial,sans-serif;font-size:12px;background:hsl(80, 100%, 96.2745098039%);border:1px solid #aaaa33;border-radius:2px;pointer-events:none;z-index:100;}#my-svg .flowchartTitleText{text-anchor:middle;font-size:18px;fill:#333;}#my-svg :root{--mermaid-font-family:"trebuchet ms",verdana,arial,sans-serif;}</style><g><marker orient="auto" markerHeight="12" markerWidth="12" markerUnits="userSpaceOnUse" refY="5" refX="6" viewBox="0 0 10 10" class="marker flowchart" id="my-svg_flowchart-pointEnd"><path style="stroke-width: 1; stroke-dasharray: 1, 0;" class="arrowMarkerPath" d="M 0 0 L 10 5 L 0 10 z"/></marker><marker orient="auto" markerHeight="12" markerWidth="12" markerUnits="userSpaceOnUse" refY="5" refX="4.5" viewBox="0 0 10 10" class="marker flowchart" id="my-svg_flowchart-pointStart"><path style="stroke-width: 1; stroke-dasharray: 1, 0;" class="arrowMarkerPath" d="M 0 5 L 10 10 L 10 0 z"/></marker><marker orient="auto" markerHeight="11" markerWidth="11" markerUnits="userSpaceOnUse" refY="5" refX="11" viewBox="0 0 10 10" class="marker flowchart" id="my-svg_flowchart-circleEnd"><circle style="stroke-width: 1; stroke-dasharray: 1, 0;" class="arrowMarkerPath" r="5" cy="5" cx="5"/></marker><marker orient="auto" markerHeight="11" markerWidth="11" markerUnits="userSpaceOnUse" refY="5" refX="-1" viewBox="0 0 10 10" class="marker flowchart" id="my-svg_flowchart-circleStart"><circle style="stroke-width: 1; stroke-dasharray: 1, 0;" class="arrowMarkerPath" r="5" cy="5" cx="5"/></marker><marker orient="auto" markerHeight="11" markerWidth="11" markerUnits="userSpaceOnUse" refY="5.2" refX="12" viewBox="0 0 11 11" class="marker cross flowchart" id="my-svg_flowchart-crossEnd"><path style="stroke-width: 2; stroke-dasharray: 1, 0;" class="arrowMarkerPath" d="M 1,1 l 9,9 M 10,1 l -9,9"/></marker><marker orient="auto" markerHeight="11" markerWidth="11" markerUnits="userSpaceOnUse" refY="5.2" refX="-1" viewBox="0 0 11 11" class="marker cross flowchart" id="my-svg_flowchart-crossStart"><path style="stroke-width: 2; stroke-dasharray: 1, 0;" class="arrowMarkerPath" d="M 1,1 l 9,9 M 10,1 l -9,9"/></marker><g class="root"><g class="clusters"/><g class="edgePaths"><path marker-end="url(#my-svg_flowchart-pointEnd)" style="fill:none;" class="edge-thickness-normal edge-pattern-solid flowchart-link LS-user LE-copilot" id="L-user-copilot-0" d="M253.262,164.777L273.253,160.61C293.243,156.443,333.223,148.11,356.496,143.943C379.77,139.777,386.336,139.777,389.62,139.777L392.903,139.777"/><path marker-end="url(#my-svg_flowchart-pointEnd)" style="fill:none;" class="edge-thickness-normal edge-pattern-solid flowchart-link LS-user LE-teams" id="L-user-teams-0" d="M253.262,197.777L273.253,201.943C293.243,206.11,333.223,214.443,360.426,218.61C387.629,222.777,402.055,222.777,409.268,222.777L416.481,222.777"/><path marker-end="url(#my-svg_flowchart-pointEnd)" style="fill:none;" class="edge-thickness-normal edge-pattern-solid flowchart-link LS-copilot LE-cs" id="L-copilot-cs-0" d="M507.484,139.777L511.651,139.777C515.818,139.777,524.151,139.777,549.175,143.777C574.2,147.777,615.915,155.778,636.773,159.778L657.63,163.778"/><path marker-end="url(#my-svg_flowchart-pointEnd)" style="fill:none;" class="edge-thickness-normal edge-pattern-solid flowchart-link LS-teams LE-cs" id="L-teams-cs-0" d="M483.906,222.777L492.003,222.777C500.099,222.777,516.292,222.777,545.246,218.776C574.2,214.776,615.915,206.776,636.773,202.775L657.63,198.775"/><path marker-end="url(#my-svg_flowchart-pointEnd)" marker-start="url(#my-svg_flowchart-pointStart)" style="fill:none;" class="edge-thickness-normal edge-pattern-solid flowchart-link LS-cs LE-sp" id="L-cs-sp-0" d="M830.707,198.892L859.506,205.091C888.305,211.289,945.902,223.686,984.36,229.885C1022.817,236.084,1042.133,236.084,1051.792,236.084L1061.45,236.084"/><path marker-end="url(#my-svg_flowchart-pointEnd)" style="fill:none;" class="edge-thickness-normal edge-pattern-solid flowchart-link LS-cs LE-flows" id="L-cs-flows-0" d="M825.361,164.777L855.05,158.372C884.74,151.968,944.12,139.16,989.326,132.755C1034.533,126.351,1065.566,126.351,1081.082,126.351L1096.598,126.351"/><path marker-end="url(#my-svg_flowchart-pointEnd)" style="fill:none;" class="edge-thickness-normal edge-pattern-solid flowchart-link LS-flows LE-approvals" id="L-flows-approvals-0" d="M1246.396,109.851L1271.596,94.293C1296.795,78.734,1347.195,47.617,1388.538,32.059C1429.882,16.5,1462.17,16.5,1478.314,16.5L1494.458,16.5"/><path marker-end="url(#my-svg_flowchart-pointEnd)" marker-start="url(#my-svg_flowchart-pointStart)" style="fill:none;" class="edge-thickness-normal edge-pattern-solid flowchart-link LS-flows LE-dataverse" id="L-flows-dataverse-0" d="M1342.745,126.351L1351.887,126.351C1361.028,126.351,1379.311,126.351,1391.736,126.351C1404.16,126.351,1410.727,126.351,1414.01,126.351L1417.294,126.351"/><path marker-end="url(#my-svg_flowchart-pointEnd)" style="fill:none;" class="edge-thickness-normal edge-pattern-solid flowchart-link LS-flows LE-conn" id="L-flows-conn-0" d="M1246.396,142.851L1271.596,158.41C1296.795,173.968,1347.195,205.085,1377.349,220.644C1407.504,236.202,1417.415,236.202,1422.37,236.202L1427.325,236.202"/><path marker-end="url(#my-svg_flowchart-pointEnd)" style="fill:none;" class="edge-thickness-normal edge-pattern-solid flowchart-link LS-conn LE-apim" id="L-conn-apim-0" d="M1727.75,236.202L1733.589,236.202C1739.427,236.202,1751.104,236.202,1760.226,236.202C1769.348,236.202,1775.915,236.202,1779.198,236.202L1782.481,236.202"/><path marker-end="url(#my-svg_flowchart-pointEnd)" style="fill:none;" class="edge-thickness-normal edge-pattern-solid flowchart-link LS-apim LE-api" id="L-apim-api-0" d="M1971.766,236.202L1975.932,236.202C1980.099,236.202,1988.432,236.202,1995.882,236.202C2003.332,236.202,2009.899,236.202,2013.182,236.202L2016.466,236.202"/></g><g class="edgeLabels"><g class="edgeLabel"><g transform="translate(0, 0)" class="label"><foreignObject height="0" width="0"><div style="display: inline-block; white-space: nowrap;" xmlns="http://www.w3.org/1999/xhtml"><span class="edgeLabel"></span></div></foreignObject></g></g><g class="edgeLabel"><g transform="translate(0, 0)" class="label"><foreignObject height="0" width="0"><div style="display: inline-block; white-space: nowrap;" xmlns="http://www.w3.org/1999/xhtml"><span class="edgeLabel"></span></div></foreignObject></g></g><g class="edgeLabel"><g transform="translate(0, 0)" class="label"><foreignObject height="0" width="0"><div style="display: inline-block; white-space: nowrap;" xmlns="http://www.w3.org/1999/xhtml"><span class="edgeLabel"></span></div></foreignObject></g></g><g class="edgeLabel"><g transform="translate(0, 0)" class="label"><foreignObject height="0" width="0"><div style="display: inline-block; white-space: nowrap;" xmlns="http://www.w3.org/1999/xhtml"><span class="edgeLabel"></span></div></foreignObject></g></g><g transform="translate(1003.5, 236.08372116088867)" class="edgeLabel"><g transform="translate(-38.25, -9)" class="label"><foreignObject height="18" width="76.5"><div style="display: inline-block; white-space: nowrap;" xmlns="http://www.w3.org/1999/xhtml"><span class="edgeLabel">knowledge</span></div></foreignObject></g></g><g class="edgeLabel"><g transform="translate(0, 0)" class="label"><foreignObject height="0" width="0"><div style="display: inline-block; white-space: nowrap;" xmlns="http://www.w3.org/1999/xhtml"><span class="edgeLabel"></span></div></foreignObject></g></g><g class="edgeLabel"><g transform="translate(0, 0)" class="label"><foreignObject height="0" width="0"><div style="display: inline-block; white-space: nowrap;" xmlns="http://www.w3.org/1999/xhtml"><span class="edgeLabel"></span></div></foreignObject></g></g><g class="edgeLabel"><g transform="translate(0, 0)" class="label"><foreignObject height="0" width="0"><div style="display: inline-block; white-space: nowrap;" xmlns="http://www.w3.org/1999/xhtml"><span class="edgeLabel"></span></div></foreignObject></g></g><g class="edgeLabel"><g transform="translate(0, 0)" class="label"><foreignObject height="0" width="0"><div style="display: inline-block; white-space: nowrap;" xmlns="http://www.w3.org/1999/xhtml"><span class="edgeLabel"></span></div></foreignObject></g></g><g class="edgeLabel"><g transform="translate(0, 0)" class="label"><foreignObject height="0" width="0"><div style="display: inline-block; white-space: nowrap;" xmlns="http://www.w3.org/1999/xhtml"><span class="edgeLabel"></span></div></foreignObject></g></g><g class="edgeLabel"><g transform="translate(0, 0)" class="label"><foreignObject height="0" width="0"><div style="display: inline-block; white-space: nowrap;" xmlns="http://www.w3.org/1999/xhtml"><span class="edgeLabel"></span></div></foreignObject></g></g></g><g class="nodes"><g transform="translate(174.1015625, 181.27669143676758)" data-id="user" data-node="true" id="flowchart-user-0" class="node default default flowchart-label"><rect height="33" width="348.203125" y="-16.5" x="-174.1015625" ry="0" rx="0" style="" class="basic label-container"/><g transform="translate(-166.6015625, -9)" style="" class="label"><rect/><foreignObject height="18" width="333.203125"><div style="display: inline-block; white-space: nowrap;" xmlns="http://www.w3.org/1999/xhtml"><span class="nodeLabel">Employee / Manager in M365 Copilot or Teams</span></div></foreignObject></g></g><g transform="translate(452.84375, 139.77669143676758)" data-id="copilot" data-node="true" id="flowchart-copilot-1" class="node default default flowchart-label"><rect height="33" width="109.28125" y="-16.5" x="-54.640625" ry="0" rx="0" style="" class="basic label-container"/><g transform="translate(-47.140625, -9)" style="" class="label"><rect/><foreignObject height="18" width="94.28125"><div style="display: inline-block; white-space: nowrap;" xmlns="http://www.w3.org/1999/xhtml"><span class="nodeLabel">M365 Copilot</span></div></foreignObject></g></g><g transform="translate(452.84375, 222.77669143676758)" data-id="teams" data-node="true" id="flowchart-teams-2" class="node default default flowchart-label"><rect height="33" width="62.125" y="-16.5" x="-31.0625" ry="0" rx="0" style="" class="basic label-container"/><g transform="translate(-23.5625, -9)" style="" class="label"><rect/><foreignObject height="18" width="47.125"><div style="display: inline-block; white-space: nowrap;" xmlns="http://www.w3.org/1999/xhtml"><span class="nodeLabel">Teams</span></div></foreignObject></g></g><g transform="translate(748.8671875, 181.27669143676758)" data-id="cs" data-node="true" id="flowchart-cs-3" class="node default default flowchart-label"><rect height="33" width="382.765625" y="-16.5" x="-191.3828125" ry="0" rx="0" style="" class="basic label-container"/><g transform="translate(-183.8828125, -9)" style="" class="label"><rect/><foreignObject height="18" width="367.765625"><div style="display: inline-block; white-space: nowrap;" xmlns="http://www.w3.org/1999/xhtml"><span class="nodeLabel">Copilot Studio agent — topics + generative answers</span></div></foreignObject></g></g><g transform="translate(1219.671875, 126.35112762451172)" data-id="flows" data-node="true" id="flowchart-flows-4" class="node default default flowchart-label"><rect height="33" width="235.546875" y="-16.5" x="-117.7734375" ry="0" rx="0" style="" class="basic label-container"/><g transform="translate(-110.2734375, -9)" style="" class="label"><rect/><foreignObject height="18" width="220.546875"><div style="display: inline-block; white-space: nowrap;" xmlns="http://www.w3.org/1999/xhtml"><span class="nodeLabel">Agent Flows (Power Automate)</span></div></foreignObject></g></g><g transform="translate(1580.1875, 16.5)" data-id="approvals" data-node="true" id="flowchart-approvals-5" class="node default default flowchart-label"><rect height="33" width="160.859375" y="-16.5" x="-80.4296875" ry="0" rx="0" style="" class="basic label-container"/><g transform="translate(-72.9296875, -9)" style="" class="label"><rect/><foreignObject height="18" width="145.859375"><div style="display: inline-block; white-space: nowrap;" xmlns="http://www.w3.org/1999/xhtml"><span class="nodeLabel">Approvals connector</span></div></foreignObject></g></g><g transform="translate(1580.1875, 126.35112762451172)" data-id="dataverse" data-node="true" id="flowchart-dataverse-6" class="node default default flowchart-label"><path transform="translate(-157.59375,-43.351128780349285)" d="M 0,17.900752520232853 a 157.59375,17.900752520232853 0,0,0 315.1875 0 a 157.59375,17.900752520232853 0,0,0 -315.1875 0 l 0,50.90075252023286 a 157.59375,17.900752520232853 0,0,0 315.1875 0 l 0,-50.90075252023286" style=""/><g transform="translate(-150.09375, -9)" style="" class="label"><rect/><foreignObject height="18" width="300.1875"><div style="display: inline-block; white-space: nowrap;" xmlns="http://www.w3.org/1999/xhtml"><span class="nodeLabel">Dataverse — onboarding + feedback state</span></div></foreignObject></g></g><g transform="translate(1219.671875, 236.08372116088867)" data-id="sp" data-node="true" id="flowchart-sp-7" class="node default default flowchart-label"><path transform="translate(-152.921875,-43.12018568216436)" d="M 0,17.74679045477624 a 152.921875,17.74679045477624 0,0,0 305.84375 0 a 152.921875,17.74679045477624 0,0,0 -305.84375 0 l 0,50.74679045477624 a 152.921875,17.74679045477624 0,0,0 305.84375 0 l 0,-50.74679045477624" style=""/><g transform="translate(-145.421875, -9)" style="" class="label"><rect/><foreignObject height="18" width="290.84375"><div style="display: inline-block; white-space: nowrap;" xmlns="http://www.w3.org/1999/xhtml"><span class="nodeLabel">SharePoint — HR handbook and policies</span></div></foreignObject></g></g><g transform="translate(1580.1875, 236.20225524902344)" data-id="conn" data-node="true" id="flowchart-conn-8" class="node default default flowchart-label"><rect height="33" width="295.125" y="-16.5" x="-147.5625" ry="0" rx="0" style="" class="basic label-container"/><g transform="translate(-140.0625, -9)" style="" class="label"><rect/><foreignObject height="18" width="280.125"><div style="display: inline-block; white-space: nowrap;" xmlns="http://www.w3.org/1999/xhtml"><span class="nodeLabel">Custom Connector — HR API OpenAPI</span></div></foreignObject></g></g><g transform="translate(1879.7734375, 236.20225524902344)" data-id="apim" data-node="true" id="flowchart-apim-9" class="node default default flowchart-label"><rect height="33" width="183.984375" y="-16.5" x="-91.9921875" ry="0" rx="0" style="" class="basic label-container"/><g transform="translate(-84.4921875, -9)" style="" class="label"><rect/><foreignObject height="18" width="168.984375"><div style="display: inline-block; white-space: nowrap;" xmlns="http://www.w3.org/1999/xhtml"><span class="nodeLabel">Azure API Management</span></div></foreignObject></g></g><g transform="translate(2192.453125, 236.20225524902344)" data-id="api" data-node="true" id="flowchart-api-10" class="node default default flowchart-label"><rect height="33" width="341.375" y="-16.5" x="-170.6875" ry="0" rx="0" style="" class="basic label-container"/><g transform="translate(-163.1875, -9)" style="" class="label"><rect/><foreignObject height="18" width="326.375"><div style="display: inline-block; white-space: nowrap;" xmlns="http://www.w3.org/1999/xhtml"><span class="nodeLabel">Container Apps — FastAPI mock HR backend</span></div></foreignObject></g></g></g></g></g></svg>