<svg aria-roledescription="flowchart-v2" role="graphics-document document" viewBox="-8 -8.000003814697266 2041.953125 571.06982421875" style="max-width: 2041.95px; background-color: transparent;" xmlns:xlink="http://www.w3.org/1999/xlink" xmlns="http://www.w3.org/2000/svg" width="100%" id="my-svg"><style>#my-svg{font-family:"trebuchet ms",verdana,arial,sans-serif;font-size:16px;fill:#333;}#my-svg .error-icon{fill:#552222;}#my-svg .error-text{fill:#552222;stroke:#552222;}#my-svg .edge-thickness-normal{stroke-width:2px;}#my-svg .edge-thickness-thick{stroke-width:3.5px;}#my-svg .edge-pattern-solid{stroke-dasharray:0;}#my-svg .edge-pattern-dashed{stroke-dasharray:3;}#my-svg .edge-pattern-dotted{stroke-dasharray:2;}#my-svg .marker{fill:#333333;stroke:#333333;}#my-svg .marker.cross{stroke:#333333;}#my-svg svg{font-family:"trebuchet ms",verdana,arial,sans-serif;font-size:16px;}#my-svg .label{font-family:"trebuchet ms",verdana,arial,sans-serif;color:#333;}#my-svg .cluster-label text{fill:#333;}#my-svg .cluster-label span,#my-svg p{color:#333;}#my-svg .label text,#my-svg span,#my-svg p{fill:#333;color:#333;}#my-svg .node rect,#my-svg .node circle,#my-svg .node ellipse,#my-svg .node polygon,#my-svg .node path{fill:#ECECFF;stroke:#9370DB;stroke-width:1px;}#my-svg .flowchart-label text{text-anchor:middle;}#my-svg .node .katex path{fill:#000;stroke:#000;stroke-width:1px;}#my-svg .node .label{text-align:center;}#my-svg .node.clickable{cursor:pointer;}#my-svg .arrowheadPath{fill:#333333;}#my-svg .edgePath .path{stroke:#333333;stroke-width:2.0px;}#my-svg .flowchart-link{stroke:#333333;fill:none;}#my-svg .edgeLabel{background-color:#e8e8e8;text-align:center;}#my-svg .edgeLabel rect{opacity:0.5;background-color:#e8e8e8;fill:#e8e8e8;}#my-svg .labelBkg{background-color:rgba(232, 232, 232, 0.5);}#my-svg .cluster rect{fill:#ffffde;stroke:#aaaa33;stroke-width:1px;}#my-svg .cluster text{fill:#333;}#my-svg .cluster span,#my-svg p{color:#333;}#my-svg div.mermaidTooltip{position:absolute;text-align:center;max-width:200px;padding:2px;font-family:"trebuchet ms",verdana,arial,sans-serif;font-size:12px;background:hsl(80, 100%, 96.2745098039%);border:1px solid #aaaa33;border-radius:2px;pointer-events:none;z-index:100;}#my-svg .flowchartTitleText{text-anchor:middle;font-size:18px;fill:#333;}#my-svg :root{--mermaid-font-family:"trebuchet ms",verdana,arial,sans-serif;}</style><g><marker orient="auto" markerHeight="12" markerWidth="12" markerUnits="userSpaceOnUse" refY="5" refX="6" viewBox="0 0 10 10" class="marker flowchart" id="my-svg_flowchart-pointEnd"><path style="stroke-width: 1; stroke-dasharray: 1, 0;" class="arrowMarkerPath" d="M 0 0 L 10 5 L 0 10 z"/></marker><marker orient="auto" markerHeight="12" markerWidth="12" markerUnits="userSpaceOnUse" refY="5" refX="4.5" viewBox="0 0 10 10" class="marker flowchart" id="my-svg_flowchart-pointStart"><path style="stroke-width: 1; stroke-dasharray: 1, 0;" class="arrowMarkerPath" d="M 0 5 L 10 10 L 10 0 z"/></marker><marker orient="auto" markerHeight="11" markerWidth="11" markerUnits="userSpaceOnUse" refY="5" refX="11" viewBox="0 0 10 10" class="marker flowchart" id="my-svg_flowchart-circleEnd"><circle style="stroke-width: 1; stroke-dasharray: 1, 0;" class="arrowMarkerPath" r="5" cy="5" cx="5"/></marker><marker orient="auto" markerHeight="11" markerWidth="11" markerUnits="userSpaceOnUse" refY="5" refX="-1" viewBox="0 0 10 10" class="marker flowchart" id="my-svg_flowchart-circleStart"><circle style="stroke-width: 1; stroke-dasharray: 1, 0;" class="arrowMarkerPath" r="5" cy="5" cx="5"/></marker><marker orient="auto" markerHeight="11" markerWidth="11" markerUnits="userSpaceOnUse" refY="5.2" refX="12" viewBox="0 0 11 11" class="marker cross flowchart" id="my-svg_flowchart-crossEnd"><path style="stroke-width: 2; stroke-dasharray: 1, 0;" class="arrowMarkerPath" d="M 1,1 l 9,9 M 10,1 l -9,9"/></marker><marker orient="auto" markerHeight="11" markerWidth="11" markerUnits="userSpaceOnUse" refY="5.2" refX="-1" viewBox="0 0 11 11" class="marker cross flowchart" id="my-svg_flowchart-crossStart"><path style="stroke-width: 2; stroke-dasharray: 1, 0;" class="arrowMarkerPath" d="M 1,1 l 9,9 M 10,1 l -9,9"/></marker><g class="root"><g class="clusters"/><g class="edgePaths"><path marker-end="url(#my-svg_flowchart-pointEnd)" style="fill:none;" class="edge-thickness-normal edge-pattern-solid flowchart-link LS-user LE-copilot" id="L-user-copilot-0" d="M311.373,406.32L324.199,404.778C337.025,403.236,362.676,400.153,381.306,398.611C399.936,397.07,411.545,397.07,417.349,397.07L423.153,397.07"/><path marker-end="url(#my-svg_flowchart-pointEnd)" style="fill:none;" class="edge-thickness-normal edge-pattern-solid flowchart-link LS-user LE-teams" id="L-user-teams-0" d="M202.781,439.32L233.706,457.111C264.63,474.903,326.479,510.486,376.088,528.278C425.698,546.07,463.068,546.07,497.917,546.07C532.766,546.07,565.094,546.07,609.353,546.07C653.612,546.07,709.802,546.07,768.513,546.07C827.224,546.07,888.456,546.07,952.507,546.07C1016.557,546.07,1083.427,546.07,1147.776,546.07C1212.125,546.07,1273.953,546.07,1337.482,546.07C1401.01,546.07,1466.24,546.07,1545.625,546.07C1625.01,546.07,1718.552,546.07,1782.789,541.728C1847.025,537.385,1881.956,528.701,1899.422,524.359L1916.888,520.017"/><path marker-end="url(#my-svg_flowchart-pointEnd)" style="fill:none;" class="edge-thickness-normal edge-pattern-solid flowchart-link LS-copilot LE-bot" id="L-copilot-bot-0" d="M572.422,397.07L576.589,397.07C580.755,397.07,589.089,397.07,596.539,397.07C603.989,397.07,610.555,397.07,613.839,397.07L617.122,397.07"/><path marker-end="url(#my-svg_flowchart-pointEnd)" style="fill:none;" class="edge-thickness-normal edge-pattern-solid flowchart-link LS-teams LE-bot" id="L-teams-bot-0" d="M1922.031,505.82L1903.708,505.82C1885.385,505.82,1848.74,505.82,1783.646,505.82C1718.552,505.82,1625.01,505.82,1545.625,505.82C1466.24,505.82,1401.01,505.82,1337.482,505.82C1273.953,505.82,1212.125,505.82,1147.776,505.82C1083.427,505.82,1016.557,505.82,957.912,490.895C899.266,475.97,848.845,446.12,823.635,431.195L798.424,416.27"/><path marker-end="url(#my-svg_flowchart-pointEnd)" style="fill:none;" class="edge-thickness-normal edge-pattern-solid flowchart-link LS-bot LE-app" id="L-bot-app-0" d="M793.863,380.57L819.834,365.195C845.805,349.82,897.746,319.07,929.521,303.695C961.296,288.32,972.904,288.32,978.708,288.32L984.513,288.32"/><path marker-end="url(#my-svg_flowchart-pointEnd)" marker-start="url(#my-svg_flowchart-pointStart)" style="fill:none;" class="edge-thickness-normal edge-pattern-solid flowchart-link LS-app LE-cosmos" id="L-app-cosmos-0" d="M1166.018,267.597L1194.312,230.302C1222.606,193.006,1279.193,118.414,1311.255,81.118C1343.317,43.822,1350.852,43.822,1354.62,43.822L1358.388,43.822"/><path marker-end="url(#my-svg_flowchart-pointEnd)" marker-start="url(#my-svg_flowchart-pointStart)" style="fill:none;" class="edge-thickness-normal edge-pattern-solid flowchart-link LS-app LE-search" id="L-app-search-0" d="M1183.055,269.142L1208.51,254.24C1233.964,239.339,1284.873,209.535,1319.683,194.634C1354.494,179.732,1373.206,179.732,1382.563,179.732L1391.919,179.732"/><path marker-end="url(#my-svg_flowchart-pointEnd)" marker-start="url(#my-svg_flowchart-pointStart)" style="fill:none;" class="edge-thickness-normal edge-pattern-solid flowchart-link LS-app LE-api" id="L-app-api-0" d="M1316.081,288.32L1319.365,288.32C1322.648,288.32,1329.215,288.32,1335.781,288.32C1342.348,288.32,1348.915,288.32,1352.198,288.32L1355.481,288.32"/><path marker-end="url(#my-svg_flowchart-pointEnd)" style="fill:none;" class="edge-thickness-normal edge-pattern-solid flowchart-link LS-app LE-msgraph" id="L-app-msgraph-0" d="M1187.17,304.82L1211.939,315.903C1236.707,326.986,1286.244,349.153,1318.077,360.236C1349.91,371.32,1364.04,371.32,1371.104,371.32L1378.169,371.32"/><path marker-end="url(#my-svg_flowchart-pointEnd)" marker-start="url(#my-svg_flowchart-pointStart)" style="fill:none;" class="edge-thickness-normal edge-pattern-solid flowchart-link LS-app LE-ai" id="L-app-ai-0" d="M1172.683,308.354L1199.866,332.682C1227.049,357.009,1281.415,405.665,1324.849,429.992C1368.283,454.32,1400.784,454.32,1417.035,454.32L1433.286,454.32"/><path marker-end="url(#my-svg_flowchart-pointEnd)" style="fill:none;stroke-width:2px;stroke-dasharray:3;" class="edge-thickness-normal edge-pattern-dotted flowchart-link LS-msgraph LE-teams" id="L-msgraph-teams-0" d="M1679.469,371.32L1701.573,371.32C1723.677,371.32,1767.885,371.32,1812.983,390.422C1858.081,409.524,1904.067,447.729,1927.061,466.831L1950.054,485.933"/></g><g class="edgeLabels"><g transform="translate(388.328125, 397.0697937011719)" class="edgeLabel"><g transform="translate(-15.125, -9)" class="label"><foreignObject height="18" width="30.25"><div style="display: inline-block; white-space: nowrap;" xmlns="http://www.w3.org/1999/xhtml"><span class="edgeLabel">chat</span></div></foreignObject></g></g><g transform="translate(949.6875, 546.0697937011719)" class="edgeLabel"><g transform="translate(-15.125, -9)" class="label"><foreignObject height="18" width="30.25"><div style="display: inline-block; white-space: nowrap;" xmlns="http://www.w3.org/1999/xhtml"><span class="edgeLabel">chat</span></div></foreignObject></g></g><g class="edgeLabel"><g transform="translate(0, 0)" class="label"><foreignObject height="0" width="0"><div style="display: inline-block; white-space: nowrap;" xmlns="http://www.w3.org/1999/xhtml"><span class="edgeLabel"></span></div></foreignObject></g></g><g class="edgeLabel"><g transform="translate(0, 0)" class="label"><foreignObject height="0" width="0"><div style="display: inline-block; white-space: nowrap;" xmlns="http://www.w3.org/1999/xhtml"><span class="edgeLabel"></span></div></foreignObject></g></g><g class="edgeLabel"><g transform="translate(0, 0)" class="label"><foreignObject height="0" width="0"><div style="display: inline-block; white-space: nowrap;" xmlns="http://www.w3.org/1999/xhtml"><span class="edgeLabel"></span></div></foreignObject></g></g><g class="edgeLabel"><g transform="translate(0, 0)" class="label"><foreignObject height="0" width="0"><div style="display: inline-block; white-space: nowrap;" xmlns="http://www.w3.org/1999/xhtml"><span class="edgeLabel"></span></div></foreignObject></g></g><g class="edgeLabel"><g transform="translate(0, 0)" class="label"><foreignObject height="0" width="0"><div style="display: inline-block; white-space: nowrap;" xmlns="http://www.w3.org/1999/xhtml"><span class="edgeLabel"></span></div></foreignObject></g></g><g class="edgeLabel"><g transform="translate(0, 0)" class="label"><foreignObject height="0" width="0"><div style="display: inline-block; white-space: nowrap;" xmlns="http://www.w3.org/1999/xhtml"><span class="edgeLabel"></span></div></foreignObject></g></g><g class="edgeLabel"><g transform="translate(0, 0)" class="label"><foreignObject height="0" width="0"><div style="display: inline-block; white-space: nowrap;" xmlns="http://www.w3.org/1999/xhtml"><span class="edgeLabel"></span></div></foreignObject></g></g><g class="edgeLabel"><g transform="translate(0, 0)" class="label"><foreignObject height="0" width="0"><div style="display: inline-block; white-space: nowrap;" xmlns="http://www.w3.org/1999/xhtml"><span class="edgeLabel"></span></div></foreignObject></g></g><g transform="translate(1812.09375, 371.3197937011719)" class="edgeLabel"><g transform="translate(-84.9375, -9)" class="label"><foreignObject height="18" width="169.875"><div style="display: inline-block; white-space: nowrap;" xmlns="http://www.w3.org/1999/xhtml"><span class="edgeLabel">proactive Adaptive Card</span></div></foreignObject></g></g></g><g class="nodes"><g transform="translate(174.1015625, 422.8197937011719)" data-id="user" data-node="true" id="flowchart-user-0" class="node default default flowchart-label"><rect height="33" width="348.203125" y="-16.5" x="-174.1015625" ry="0" rx="0" style="" class="basic label-container"/><g transform="translate(-166.6015625, -9)" style="" class="label"><rect/><foreignObject height="18" width="333.203125"><div style="display: inline-block; white-space: nowrap;" xmlns="http://www.w3.org/1999/xhtml"><span class="nodeLabel">Employee / Manager in M365 Copilot or Teams</span></div></foreignObject></g></g><g transform="translate(500.4375, 397.0697937011719)" data-id="copilot" data-node="true" id="flowchart-copilot-1" class="node default default flowchart-label"><rect height="33" width="143.96875" y="-16.5" x="-71.984375" ry="0" rx="0" style="" class="basic label-container"/><g transform="translate(-64.484375, -9)" style="" class="label"><rect/><foreignObject height="18" width="128.96875"><div style="display: inline-block; white-space: nowrap;" xmlns="http://www.w3.org/1999/xhtml"><span class="nodeLabel">M365 Copilot chat</span></div></foreignObject></g></g><g transform="translate(1973.9921875, 505.8197937011719)" data-id="teams" data-node="true" id="flowchart-teams-2" class="node default default flowchart-label"><rect height="33" width="103.921875" y="-16.5" x="-51.9609375" ry="0" rx="0" style="" class="basic label-container"/><g transform="translate(-44.4609375, -9)" style="" class="label"><rect/><foreignObject height="18" width="88.921875"><div style="display: inline-block; white-space: nowrap;" xmlns="http://www.w3.org/1999/xhtml"><span class="nodeLabel">Teams client</span></div></foreignObject></g></g><g transform="translate(765.9921875, 397.0697937011719)" data-id="bot" data-node="true" id="flowchart-bot-3" class="node default default flowchart-label"><rect height="33" width="287.140625" y="-16.5" x="-143.5703125" ry="0" rx="0" style="" class="basic label-container"/><g transform="translate(-136.0703125, -9)" style="" class="label"><rect/><foreignObject height="18" width="272.140625"><div style="display: inline-block; white-space: nowrap;" xmlns="http://www.w3.org/1999/xhtml"><span class="nodeLabel">Azure Bot Service channel registration</span></div></foreignObject></g></g><g transform="translate(1150.296875, 288.3197937011719)" data-id="app" data-node="true" id="flowchart-app-4" class="node default default flowchart-label"><rect height="33" width="320.96875" y="-16.5" x="-160.484375" ry="0" rx="0" style="" class="basic label-container"/><g transform="translate(-152.984375, -9)" style="" class="label"><rect/><foreignObject height="18" width="305.96875"><div style="display: inline-block; white-space: nowrap;" xmlns="http://www.w3.org/1999/xhtml"><span class="nodeLabel">Container Apps — Python Agents SDK app</span></div></foreignObject></g></g><g transform="translate(1531.46875, 43.82222366333008)" data-id="cosmos" data-node="true" id="flowchart-cosmos-5" class="node default default flowchart-label"><path transform="translate(-167.78125,-43.82222825349437)" d="M 0,18.214818835662914 a 167.78125,18.214818835662914 0,0,0 335.5625 0 a 167.78125,18.214818835662914 0,0,0 -335.5625 0 l 0,51.21481883566291 a 167.78125,18.214818835662914 0,0,0 335.5625 0 l 0,-51.21481883566291" style=""/><g transform="translate(-160.28125, -9)" style="" class="label"><rect/><foreignObject height="18" width="320.5625"><div style="display: inline-block; white-space: nowrap;" xmlns="http://www.w3.org/1999/xhtml"><span class="nodeLabel">Cosmos DB — conversation + workflow state</span></div></foreignObject></g></g><g transform="translate(1531.46875, 179.73212051391602)" data-id="search" data-node="true" id="flowchart-search-6" class="node default default flowchart-label"><path transform="translate(-134.25,-42.087674714104196)" d="M 0,17.058449809402795 a 134.25,17.058449809402795 0,0,0 268.5 0 a 134.25,17.058449809402795 0,0,0 -268.5 0 l 0,50.058449809402795 a 134.25,17.058449809402795 0,0,0 268.5 0 l 0,-50.058449809402795" style=""/><g transform="translate(-126.75, -9)" style="" class="label"><rect/><foreignObject height="18" width="253.5"><div style="display: inline-block; white-space: nowrap;" xmlns="http://www.w3.org/1999/xhtml"><span class="nodeLabel">Azure AI Search — handbook index</span></div></foreignObject></g></g><g transform="translate(1531.46875, 288.3197937011719)" data-id="api" data-node="true" id="flowchart-api-7" class="node default default flowchart-label"><rect height="33" width="341.375" y="-16.5" x="-170.6875" ry="0" rx="0" style="" class="basic label-container"/><g transform="translate(-163.1875, -9)" style="" class="label"><rect/><foreignObject height="18" width="326.375"><div style="display: inline-block; white-space: nowrap;" xmlns="http://www.w3.org/1999/xhtml"><span class="nodeLabel">Container Apps — FastAPI mock HR backend</span></div></foreignObject></g></g><g transform="translate(1531.46875, 371.3197937011719)" data-id="msgraph" data-node="true" id="flowchart-msgraph-8" class="node default default flowchart-label"><rect height="33" width="296" y="-16.5" x="-148" ry="0" rx="0" style="" class="basic label-container"/><g transform="translate(-140.5, -9)" style="" class="label"><rect/><foreignObject height="18" width="281"><div style="display: inline-block; white-space: nowrap;" xmlns="http://www.w3.org/1999/xhtml"><span class="nodeLabel">Microsoft Graph — proactive messages</span></div></foreignObject></g></g><g transform="translate(1531.46875, 454.3197937011719)" data-id="ai" data-node="true" id="flowchart-ai-9" class="node default default flowchart-label"><rect height="33" width="185.765625" y="-16.5" x="-92.8828125" ry="0" rx="0" style="" class="basic label-container"/><g transform="translate(-85.3828125, -9)" style="" class="label"><rect/><foreignObject height="18" width="170.765625"><div style="display: inline-block; white-space: nowrap;" xmlns="http://www.w3.org/1999/xhtml"><span class="nodeLabel">Azure OpenAI — gpt-4o</span></div></foreignObject></g></g></g></g></g></svg>