<svg aria-roledescription="flowchart-v2" role="graphics-document document" viewBox="-8 -8 2444.203125 534.933349609375" style="max-width: 2444.2px; background-color: transparent;" xmlns:xlink="http://www.w3.org/1999/xlink" xmlns="http://www.w3.org/2000/svg" width="100%" id="my-svg"><style>#my-svg{font-family:"trebuchet ms",verdana,arial,sans-serif;font-size:16px;fill:#333;}#my-svg .error-icon{fill:#552222;}#my-svg .error-text{fill:#552222;stroke:#552222;}#my-svg .edge-thickness-normal{stroke-width:2px;}#my-svg .edge-thickness-thick{stroke-width:3.5px;}#my-svg .edge-pattern-solid{stroke-dasharray:0;}#my-svg .edge-pattern-dashed{stroke-dasharray:3;}#my-svg .edge-pattern-dotted{stroke-dasharray:2;}#my-svg .marker{fill:#333333;stroke:#333333;}#my-svg .marker.cross{stroke:#333333;}#my-svg svg{font-family:"trebuchet ms",verdana,arial,sans-serif;font-size:16px;}#my-svg .label{font-family:"trebuchet ms",verdana,arial,sans-serif;color:#333;}#my-svg .cluster-label text{fill:#333;}#my-svg .cluster-label span,#my-svg p{color:#333;}#my-svg .label text,#my-svg span,#my-svg p{fill:#333;color:#333;}#my-svg .node rect,#my-svg .node circle,#my-svg .node ellipse,#my-svg .node polygon,#my-svg .node path{fill:#ECECFF;stroke:#9370DB;stroke-width:1px;}#my-svg .flowchart-label text{text-anchor:middle;}#my-svg .node .katex path{fill:#000;stroke:#000;stroke-width:1px;}#my-svg .node .label{text-align:center;}#my-svg .node.clickable{cursor:pointer;}#my-svg .arrowheadPath{fill:#333333;}#my-svg .edgePath .path{stroke:#333333;stroke-width:2.0px;}#my-svg .flowchart-link{stroke:#333333;fill:none;}#my-svg .edgeLabel{background-color:#e8e8e8;text-align:center;}#my-svg .edgeLabel rect{opacity:0.5;background-color:#e8e8e8;fill:#e8e8e8;}#my-svg .labelBkg{background-color:rgba(232, 232, 232, 0.5);}#my-svg .cluster rect{fill:#ffffde;stroke:#aaaa33;stroke-width:1px;}#my-svg .cluster text{fill:#333;}#my-svg .cluster span,#my-svg p{color:#333;}#my-svg div.mermaidTooltip{position:absolute;text-align:center;max-width:200px;padding:2px;font-family:"trebuchet ms",verdana,arial,sans-serif;font-size:12px;background:hsl(80, 100%, 96.2745098039%);border:1px solid #aaaa33;border-radius:2px;pointer-events:none;z-index:100;}#my-svg .flowchartTitleText{text-anchor:middle;font-size:18px;fill:#333;}#my-svg :root{--mermaid-font-family:"trebuchet ms",verdana,arial,sans-serif;}</style><g><marker orient="auto" markerHeight="12" markerWidth="12" markerUnits="userSpaceOnUse" refY="5" refX="6" viewBox="0 0 10 10" class="marker flowchart" id="my-svg_flowchart-pointEnd"><path style="stroke-width: 1; stroke-dasharray: 1, 0;" class="arrowMarkerPath" d="M 0 0 L 10 5 L 0 10 z"/></marker><marker orient="auto" markerHeight="12" markerWidth="12" markerUnits="userSpaceOnUse" refY="5" refX="4.5" viewBox="0 0 10 10" class="marker flowchart" id="my-svg_flowchart-pointStart"><path style="stroke-width: 1; stroke-dasharray: 1, 0;" class="arrowMarkerPath" d="M 0 5 L 10 10 L 10 0 z"/></marker><marker orient="auto" markerHeight="11" markerWidth="11" markerUnits="userSpaceOnUse" refY="5" refX="11" viewBox="0 0 10 10" class="marker flowchart" id="my-svg_flowchart-circleEnd"><circle style="stroke-width: 1; stroke-dasharray: 1, 0;" class="arrowMarkerPath" r="5" cy="5" cx="5"/></marker><marker orient="auto" markerHeight="11" markerWidth="11" markerUnits="userSpaceOnUse" refY="5" refX="-1" viewBox="0 0 10 10" class="marker flowchart" id="my-svg_flowchart-circleStart"><circle style="stroke-width: 1; stroke-dasharray: 1, 0;" class="arrowMarkerPath" r="5" cy="5" cx="5"/></marker><marker orient="auto" markerHeight="11" markerWidth="11" markerUnits="userSpaceOnUse" refY="5.2" refX="12" viewBox="0 0 11 11" class="marker cross flowchart" id="my-svg_flowchart-crossEnd"><path style="stroke-width: 2; stroke-dasharray: 1, 0;" class="arrowMarkerPath" d="M 1,1 l 9,9 M 10,1 l -9,9"/></marker><marker orient="auto" markerHeight="11" markerWidth="11" markerUnits="userSpaceOnUse" refY="5.2" refX="-1" viewBox="0 0 11 11" class="marker cross flowchart" id="my-svg_flowchart-crossStart"><path style="stroke-width: 2; stroke-dasharray: 1, 0;" class="arrowMarkerPath" d="M 1,1 l 9,9 M 10,1 l -9,9"/></marker><g class="root"><g class="clusters"/><g class="edgePaths"><path marker-end="url(#my-svg_flowchart-pointEnd)" style="fill:none;" class="edge-thickness-normal edge-pattern-solid flowchart-link LS-user LE-copilot" id="L-user-copilot-0" d="M123.592,341.433L134.267,337.267C144.942,333.1,166.291,324.767,180.249,320.6C194.207,316.433,200.774,316.433,204.057,316.433L207.341,316.433"/><path marker-end="url(#my-svg_flowchart-pointEnd)" style="fill:none;" class="edge-thickness-normal edge-pattern-solid flowchart-link LS-user LE-teams" id="L-user-teams-0" d="M123.592,374.433L134.267,378.6C144.942,382.767,166.291,391.1,187.365,395.267C208.439,399.433,229.237,399.433,239.637,399.433L250.036,399.433"/><path marker-end="url(#my-svg_flowchart-pointEnd)" style="fill:none;" class="edge-thickness-normal edge-pattern-solid flowchart-link LS-copilot LE-cs" id="L-copilot-cs-0" d="M360.156,316.433L364.323,316.433C368.49,316.433,376.823,316.433,409.497,320.476C442.17,324.519,499.184,332.604,527.691,336.647L556.198,340.689"/><path marker-end="url(#my-svg_flowchart-pointEnd)" style="fill:none;" class="edge-thickness-normal edge-pattern-solid flowchart-link LS-teams LE-cs" id="L-teams-cs-0" d="M317.461,399.433L328.743,399.433C340.026,399.433,362.591,399.433,402.381,395.391C442.17,391.348,499.184,383.263,527.691,379.22L556.198,375.178"/><path marker-end="url(#my-svg_flowchart-pointEnd)" marker-start="url(#my-svg_flowchart-pointStart)" style="fill:none;" class="edge-thickness-normal edge-pattern-solid flowchart-link LS-cs LE-sp" id="L-cs-sp-0" d="M761.399,340.342L809.009,330.324C856.62,320.306,951.841,300.269,1027.415,290.251C1102.989,280.233,1158.915,280.233,1186.878,280.233L1214.841,280.233"/><path marker-end="url(#my-svg_flowchart-pointEnd)" style="fill:none;" class="edge-thickness-normal edge-pattern-solid flowchart-link LS-cs LE-flows" id="L-cs-flows-0" d="M707.746,341.433L764.299,310.277C820.852,279.12,933.957,216.807,1006.564,185.651C1079.171,154.494,1111.279,154.494,1127.333,154.494L1143.388,154.494"/><path marker-end="url(#my-svg_flowchart-pointEnd)" style="fill:none;" class="edge-thickness-normal edge-pattern-solid flowchart-link LS-cs LE-hrconn" id="L-cs-hrconn-0" d="M945.438,357.933L962.375,357.933C979.313,357.933,1013.188,357.933,1083.124,357.933C1153.06,357.933,1259.057,357.933,1352.284,357.933C1445.51,357.933,1525.966,357.933,1582.819,358.696C1639.673,359.459,1672.924,360.985,1689.549,361.748L1706.174,362.511"/><path marker-end="url(#my-svg_flowchart-pointEnd)" style="fill:none;" class="edge-thickness-normal edge-pattern-solid flowchart-link LS-cs LE-fdyconn" id="L-cs-fdyconn-0" d="M723.097,374.433L777.091,394.1C831.086,413.767,939.074,453.1,1022.145,472.767C1105.215,492.433,1163.368,492.433,1192.444,492.433L1221.52,492.433"/><path marker-end="url(#my-svg_flowchart-pointEnd)" style="fill:none;" class="edge-thickness-normal edge-pattern-solid flowchart-link LS-cs LE-hrqueue" id="L-cs-hrqueue-0" d="M796.105,374.433L837.931,380.267C879.758,386.1,963.41,397.767,1041.057,403.6C1118.705,409.433,1190.347,409.433,1226.168,409.433L1261.989,409.433"/><path marker-end="url(#my-svg_flowchart-pointEnd)" style="fill:none;" class="edge-thickness-normal edge-pattern-solid flowchart-link LS-flows LE-approvals" id="L-flows-approvals-0" d="M1393.915,137.994L1429.333,117.745C1464.751,97.496,1535.586,56.998,1593.036,36.749C1650.486,16.5,1694.55,16.5,1716.582,16.5L1738.614,16.5"/><path marker-end="url(#my-svg_flowchart-pointEnd)" style="fill:none;" class="edge-thickness-normal edge-pattern-solid flowchart-link LS-flows LE-outlook" id="L-flows-outlook-0" d="M1437.472,137.994L1465.63,131.579C1493.789,125.163,1550.105,112.331,1589.622,105.916C1629.14,99.5,1651.857,99.5,1663.216,99.5L1674.575,99.5"/><path marker-end="url(#my-svg_flowchart-pointEnd)" marker-start="url(#my-svg_flowchart-pointStart)" style="fill:none;" class="edge-thickness-normal edge-pattern-solid flowchart-link LS-flows LE-dataverse" id="L-flows-dataverse-0" d="M1442.64,172.172L1469.937,178.391C1497.234,184.611,1551.828,197.05,1587.816,203.269C1623.804,209.489,1641.185,209.489,1649.876,209.489L1658.567,209.489"/><path marker-end="url(#my-svg_flowchart-pointEnd)" style="fill:none;" class="edge-thickness-normal edge-pattern-solid flowchart-link LS-flows LE-hrconn" id="L-flows-hrconn-0" d="M1379.767,170.994L1417.543,213.359C1455.319,255.724,1530.87,340.454,1593.644,376.251C1656.418,412.049,1706.414,398.914,1731.412,392.347L1756.411,385.78"/><path marker-end="url(#my-svg_flowchart-pointEnd)" style="fill:none;" class="edge-thickness-normal edge-pattern-solid flowchart-link LS-hrconn LE-fn" id="L-hrconn-fn-0" d="M1937.219,367.933L1954.727,367.933C1972.234,367.933,2007.25,367.933,2028.042,368.093C2048.834,368.253,2055.403,368.573,2058.688,368.733L2061.972,368.892"/><path marker-end="url(#my-svg_flowchart-pointEnd)" style="fill:none;" class="edge-thickness-normal edge-pattern-solid flowchart-link LS-fdyconn LE-fdy" id="L-fdyconn-fdy-0" d="M1503.289,492.433L1520.478,492.433C1537.667,492.433,1572.044,492.433,1592.516,492.433C1612.989,492.433,1619.555,492.433,1622.839,492.433L1626.122,492.433"/><path marker-end="url(#my-svg_flowchart-pointEnd)" style="fill:none;" class="edge-thickness-normal edge-pattern-solid flowchart-link LS-fdy LE-aoai" id="L-fdy-aoai-0" d="M2017.266,501.286L2021.432,501.477C2025.599,501.669,2033.932,502.051,2048.048,502.242C2062.163,502.433,2082.06,502.433,2092.009,502.433L2101.958,502.433"/><path marker-end="url(#my-svg_flowchart-pointEnd)" style="fill:none;" class="edge-thickness-normal edge-pattern-solid flowchart-link LS-fdy LE-fn" id="L-fdy-fn-0" d="M1900.443,475.933L1924.08,470.808C1947.718,465.683,1994.992,455.433,2043.632,442.125C2092.272,428.816,2142.278,412.449,2167.282,404.266L2192.285,396.082"/></g><g class="edgeLabels"><g class="edgeLabel"><g transform="translate(0, 0)" class="label"><foreignObject height="0" width="0"><div style="display: inline-block; white-space: nowrap;" xmlns="http://www.w3.org/1999/xhtml"><span class="edgeLabel"></span></div></foreignObject></g></g><g class="edgeLabel"><g transform="translate(0, 0)" class="label"><foreignObject height="0" width="0"><div style="display: inline-block; white-space: nowrap;" xmlns="http://www.w3.org/1999/xhtml"><span class="edgeLabel"></span></div></foreignObject></g></g><g class="edgeLabel"><g transform="translate(0, 0)" class="label"><foreignObject height="0" width="0"><div style="display: inline-block; white-space: nowrap;" xmlns="http://www.w3.org/1999/xhtml"><span class="edgeLabel"></span></div></foreignObject></g></g><g class="edgeLabel"><g transform="translate(0, 0)" class="label"><foreignObject height="0" width="0"><div style="display: inline-block; white-space: nowrap;" xmlns="http://www.w3.org/1999/xhtml"><span class="edgeLabel"></span></div></foreignObject></g></g><g transform="translate(1047.0625, 280.233211517334)" class="edgeLabel"><g transform="translate(-69.375, -9)" class="label"><foreignObject height="18" width="138.75"><div style="display: inline-block; white-space: nowrap;" xmlns="http://www.w3.org/1999/xhtml"><span class="edgeLabel">generative answers</span></div></foreignObject></g></g><g class="edgeLabel"><g transform="translate(0, 0)" class="label"><foreignObject height="0" width="0"><div style="display: inline-block; white-space: nowrap;" xmlns="http://www.w3.org/1999/xhtml"><span class="edgeLabel"></span></div></foreignObject></g></g><g class="edgeLabel"><g transform="translate(0, 0)" class="label"><foreignObject height="0" width="0"><div style="display: inline-block; white-space: nowrap;" xmlns="http://www.w3.org/1999/xhtml"><span class="edgeLabel"></span></div></foreignObject></g></g><g class="edgeLabel"><g transform="translate(0, 0)" class="label"><foreignObject height="0" width="0"><div style="display: inline-block; white-space: nowrap;" xmlns="http://www.w3.org/1999/xhtml"><span class="edgeLabel"></span></div></foreignObject></g></g><g transform="translate(1047.0625, 409.433349609375)" class="edgeLabel"><g transform="translate(-76.625, -9)" class="label"><foreignObject height="18" width="153.25"><div style="display: inline-block; white-space: nowrap;" xmlns="http://www.w3.org/1999/xhtml"><span class="edgeLabel">TransferConversation</span></div></foreignObject></g></g><g class="edgeLabel"><g transform="translate(0, 0)" class="label"><foreignObject height="0" width="0"><div style="display: inline-block; white-space: nowrap;" xmlns="http://www.w3.org/1999/xhtml"><span class="edgeLabel"></span></div></foreignObject></g></g><g class="edgeLabel"><g transform="translate(0, 0)" class="label"><foreignObject height="0" width="0"><div style="display: inline-block; white-space: nowrap;" xmlns="http://www.w3.org/1999/xhtml"><span class="edgeLabel"></span></div></foreignObject></g></g><g class="edgeLabel"><g transform="translate(0, 0)" class="label"><foreignObject height="0" width="0"><div style="display: inline-block; white-space: nowrap;" xmlns="http://www.w3.org/1999/xhtml"><span class="edgeLabel"></span></div></foreignObject></g></g><g class="edgeLabel"><g transform="translate(0, 0)" class="label"><foreignObject height="0" width="0"><div style="display: inline-block; white-space: nowrap;" xmlns="http://www.w3.org/1999/xhtml"><span class="edgeLabel"></span></div></foreignObject></g></g><g class="edgeLabel"><g transform="translate(0, 0)" class="label"><foreignObject height="0" width="0"><div style="display: inline-block; white-space: nowrap;" xmlns="http://www.w3.org/1999/xhtml"><span class="edgeLabel"></span></div></foreignObject></g></g><g class="edgeLabel"><g transform="translate(0, 0)" class="label"><foreignObject height="0" width="0"><div style="display: inline-block; white-space: nowrap;" xmlns="http://www.w3.org/1999/xhtml"><span class="edgeLabel"></span></div></foreignObject></g></g><g class="edgeLabel"><g transform="translate(0, 0)" class="label"><foreignObject height="0" width="0"><div style="display: inline-block; white-space: nowrap;" xmlns="http://www.w3.org/1999/xhtml"><span class="edgeLabel"></span></div></foreignObject></g></g><g class="edgeLabel"><g transform="translate(0, 0)" class="label"><foreignObject height="0" width="0"><div style="display: inline-block; white-space: nowrap;" xmlns="http://www.w3.org/1999/xhtml"><span class="edgeLabel"></span></div></foreignObject></g></g></g><g class="nodes"><g transform="translate(81.3203125, 357.933349609375)" data-id="user" data-node="true" id="flowchart-user-0" class="node default default flowchart-label"><rect height="33" width="162.640625" y="-16.5" x="-81.3203125" ry="0" rx="0" style="" class="basic label-container"/><g transform="translate(-73.8203125, -9)" style="" class="label"><rect/><foreignObject height="18" width="147.640625"><div style="display: inline-block; white-space: nowrap;" xmlns="http://www.w3.org/1999/xhtml"><span class="nodeLabel">Employee / Manager</span></div></foreignObject></g></g><g transform="translate(286.3984375, 316.433349609375)" data-id="copilot" data-node="true" id="flowchart-copilot-1" class="node default default flowchart-label"><rect height="33" width="147.515625" y="-16.5" x="-73.7578125" ry="0" rx="0" style="" class="basic label-container"/><g transform="translate(-66.2578125, -9)" style="" class="label"><rect/><foreignObject height="18" width="132.515625"><div style="display: inline-block; white-space: nowrap;" xmlns="http://www.w3.org/1999/xhtml"><span class="nodeLabel">M365 Copilot Chat</span></div></foreignObject></g></g><g transform="translate(286.3984375, 399.433349609375)" data-id="teams" data-node="true" id="flowchart-teams-2" class="node default default flowchart-label"><rect height="33" width="62.125" y="-16.5" x="-31.0625" ry="0" rx="0" style="" class="basic label-container"/><g transform="translate(-23.5625, -9)" style="" class="label"><rect/><foreignObject height="18" width="47.125"><div style="display: inline-block; white-space: nowrap;" xmlns="http://www.w3.org/1999/xhtml"><span class="nodeLabel">Teams</span></div></foreignObject></g></g><g transform="translate(677.796875, 357.933349609375)" data-id="cs" data-node="true" id="flowchart-cs-3" class="node default default flowchart-label"><rect height="33" width="535.28125" y="-16.5" x="-267.640625" ry="0" rx="0" style="" class="basic label-container"/><g transform="translate(-260.140625, -9)" style="" class="label"><rect/><foreignObject height="18" width="520.28125"><div style="display: inline-block; white-space: nowrap;" xmlns="http://www.w3.org/1999/xhtml"><span class="nodeLabel">Copilot Studio agent — topics, generative answers, TransferConversation</span></div></foreignObject></g></g><g transform="translate(1365.0546875, 154.49440383911133)" data-id="flows" data-node="true" id="flowchart-flows-4" class="node default default flowchart-label"><rect height="33" width="432.734375" y="-16.5" x="-216.3671875" ry="0" rx="0" style="" class="basic label-container"/><g transform="translate(-208.8671875, -9)" style="" class="label"><rect/><foreignObject height="18" width="417.734375"><div style="display: inline-block; white-space: nowrap;" xmlns="http://www.w3.org/1999/xhtml"><span class="nodeLabel">Agent Flows — time-off, onboarding, feedback open, triage</span></div></foreignObject></g></g><g transform="translate(1824.34375, 16.5)" data-id="approvals" data-node="true" id="flowchart-approvals-5" class="node default default flowchart-label"><rect height="33" width="160.859375" y="-16.5" x="-80.4296875" ry="0" rx="0" style="" class="basic label-container"/><g transform="translate(-72.9296875, -9)" style="" class="label"><rect/><foreignObject height="18" width="145.859375"><div style="display: inline-block; white-space: nowrap;" xmlns="http://www.w3.org/1999/xhtml"><span class="nodeLabel">Approvals connector</span></div></foreignObject></g></g><g transform="translate(1824.34375, 99.5)" data-id="outlook" data-node="true" id="flowchart-outlook-6" class="node default default flowchart-label"><rect height="33" width="288.9375" y="-16.5" x="-144.46875" ry="0" rx="0" style="" class="basic label-container"/><g transform="translate(-136.96875, -9)" style="" class="label"><rect/><foreignObject height="18" width="273.9375"><div style="display: inline-block; white-space: nowrap;" xmlns="http://www.w3.org/1999/xhtml"><span class="nodeLabel">Outlook connector — feedback fan-out</span></div></foreignObject></g></g><g transform="translate(1824.34375, 209.48880767822266)" data-id="dataverse" data-node="true" id="flowchart-dataverse-7" class="node default default flowchart-label"><path transform="translate(-160.4765625,-43.48880557794051)" d="M 0,17.99253705196034 a 160.4765625,17.99253705196034 0,0,0 320.953125 0 a 160.4765625,17.99253705196034 0,0,0 -320.953125 0 l 0,50.99253705196034 a 160.4765625,17.99253705196034 0,0,0 320.953125 0 l 0,-50.99253705196034" style=""/><g transform="translate(-152.9765625, -9)" style="" class="label"><rect/><foreignObject height="18" width="305.953125"><div style="display: inline-block; white-space: nowrap;" xmlns="http://www.w3.org/1999/xhtml"><span class="nodeLabel">Dataverse — onboarding, feedback, tickets</span></div></foreignObject></g></g><g transform="translate(1365.0546875, 280.233211517334)" data-id="sp" data-node="true" id="flowchart-sp-8" class="node default default flowchart-label"><path transform="translate(-144.9140625,-42.70013936494783)" d="M 0,17.466759576631887 a 144.9140625,17.466759576631887 0,0,0 289.828125 0 a 144.9140625,17.466759576631887 0,0,0 -289.828125 0 l 0,50.46675957663189 a 144.9140625,17.466759576631887 0,0,0 289.828125 0 l 0,-50.46675957663189" style=""/><g transform="translate(-137.4140625, -9)" style="" class="label"><rect/><foreignObject height="18" width="274.828125"><div style="display: inline-block; white-space: nowrap;" xmlns="http://www.w3.org/1999/xhtml"><span class="nodeLabel">SharePoint — HR handbook &amp; policies</span></div></foreignObject></g></g><g transform="translate(1824.34375, 367.933349609375)" data-id="hrconn" data-node="true" id="flowchart-hrconn-9" class="node default default flowchart-label"><rect height="33" width="225.75" y="-16.5" x="-112.875" ry="0" rx="0" style="" class="basic label-container"/><g transform="translate(-105.375, -9)" style="" class="label"><rect/><foreignObject height="18" width="210.75"><div style="display: inline-block; white-space: nowrap;" xmlns="http://www.w3.org/1999/xhtml"><span class="nodeLabel">Custom Connector — HR API</span></div></foreignObject></g></g><g transform="translate(1365.0546875, 492.433349609375)" data-id="fdyconn" data-node="true" id="flowchart-fdyconn-10" class="node default default flowchart-label"><rect height="33" width="276.46875" y="-16.5" x="-138.234375" ry="0" rx="0" style="" class="basic label-container"/><g transform="translate(-130.734375, -9)" style="" class="label"><rect/><foreignObject height="18" width="261.46875"><div style="display: inline-block; white-space: nowrap;" xmlns="http://www.w3.org/1999/xhtml"><span class="nodeLabel">Custom Connector — Foundry agent</span></div></foreignObject></g></g><g transform="translate(2247.734375, 377.933349609375)" data-id="fn" data-node="true" id="flowchart-fn-11" class="node default default flowchart-label"><rect height="33" width="360.9375" y="-16.5" x="-180.46875" ry="0" rx="0" style="" class="basic label-container"/><g transform="translate(-172.96875, -9)" style="" class="label"><rect/><foreignObject height="18" width="345.9375"><div style="display: inline-block; white-space: nowrap;" xmlns="http://www.w3.org/1999/xhtml"><span class="nodeLabel">Azure Functions Consumption — Python HR API</span></div></foreignObject></g></g><g transform="translate(1824.34375, 492.433349609375)" data-id="fdy" data-node="true" id="flowchart-fdy-12" class="node default default flowchart-label"><rect height="33" width="385.84375" y="-16.5" x="-192.921875" ry="0" rx="0" style="" class="basic label-container"/><g transform="translate(-185.421875, -9)" style="" class="label"><rect/><foreignObject height="18" width="370.84375"><div style="display: inline-block; white-space: nowrap;" xmlns="http://www.w3.org/1999/xhtml"><span class="nodeLabel">Foundry hosted agent — ZavaHRMobilityAdvisor</span></div></foreignObject></g></g><g transform="translate(2247.734375, 502.433349609375)" data-id="aoai" data-node="true" id="flowchart-aoai-13" class="node default default flowchart-label"><rect height="33" width="280.953125" y="-16.5" x="-140.4765625" ry="0" rx="0" style="" class="basic label-container"/><g transform="translate(-132.9765625, -9)" style="" class="label"><rect/><foreignObject height="18" width="265.953125"><div style="display: inline-block; white-space: nowrap;" xmlns="http://www.w3.org/1999/xhtml"><span class="nodeLabel">Azure OpenAI gpt-4o GlobalStandard</span></div></foreignObject></g></g><g transform="translate(1365.0546875, 409.433349609375)" data-id="hrqueue" data-node="true" id="flowchart-hrqueue-14" class="node default default flowchart-label"><rect height="33" width="195.53125" y="-16.5" x="-97.765625" ry="0" rx="0" style="" class="basic label-container"/><g transform="translate(-90.265625, -9)" style="" class="label"><rect/><foreignObject height="18" width="180.53125"><div style="display: inline-block; white-space: nowrap;" xmlns="http://www.w3.org/1999/xhtml"><span class="nodeLabel">Teams HR Partner queue</span></div></foreignObject></g></g></g></g></g></svg>