<svg aria-roledescription="flowchart-v2" role="graphics-document document" viewBox="-8 -8 1873.640625 2269.359375" style="max-width: 1873.64px; background-color: transparent;" xmlns:xlink="http://www.w3.org/1999/xlink" xmlns="http://www.w3.org/2000/svg" width="100%" id="my-svg"><style>#my-svg{font-family:"trebuchet ms",verdana,arial,sans-serif;font-size:16px;fill:#333;}#my-svg .error-icon{fill:#552222;}#my-svg .error-text{fill:#552222;stroke:#552222;}#my-svg .edge-thickness-normal{stroke-width:2px;}#my-svg .edge-thickness-thick{stroke-width:3.5px;}#my-svg .edge-pattern-solid{stroke-dasharray:0;}#my-svg .edge-pattern-dashed{stroke-dasharray:3;}#my-svg .edge-pattern-dotted{stroke-dasharray:2;}#my-svg .marker{fill:#333333;stroke:#333333;}#my-svg .marker.cross{stroke:#333333;}#my-svg svg{font-family:"trebuchet ms",verdana,arial,sans-serif;font-size:16px;}#my-svg .label{font-family:"trebuchet ms",verdana,arial,sans-serif;color:#333;}#my-svg .cluster-label text{fill:#333;}#my-svg .cluster-label span,#my-svg p{color:#333;}#my-svg .label text,#my-svg span,#my-svg p{fill:#333;color:#333;}#my-svg .node rect,#my-svg .node circle,#my-svg .node ellipse,#my-svg .node polygon,#my-svg .node path{fill:#ECECFF;stroke:#9370DB;stroke-width:1px;}#my-svg .flowchart-label text{text-anchor:middle;}#my-svg .node .katex path{fill:#000;stroke:#000;stroke-width:1px;}#my-svg .node .label{text-align:center;}#my-svg .node.clickable{cursor:pointer;}#my-svg .arrowheadPath{fill:#333333;}#my-svg .edgePath .path{stroke:#333333;stroke-width:2.0px;}#my-svg .flowchart-link{stroke:#333333;fill:none;}#my-svg .edgeLabel{background-color:#e8e8e8;text-align:center;}#my-svg .edgeLabel rect{opacity:0.5;background-color:#e8e8e8;fill:#e8e8e8;}#my-svg .labelBkg{background-color:rgba(232, 232, 232, 0.5);}#my-svg .cluster rect{fill:#ffffde;stroke:#aaaa33;stroke-width:1px;}#my-svg .cluster text{fill:#333;}#my-svg .cluster span,#my-svg p{color:#333;}#my-svg div.mermaidTooltip{position:absolute;text-align:center;max-width:200px;padding:2px;font-family:"trebuchet ms",verdana,arial,sans-serif;font-size:12px;background:hsl(80, 100%, 96.2745098039%);border:1px solid #aaaa33;border-radius:2px;pointer-events:none;z-index:100;}#my-svg .flowchartTitleText{text-anchor:middle;font-size:18px;fill:#333;}#my-svg :root{--mermaid-font-family:"trebuchet ms",verdana,arial,sans-serif;}#my-svg .pick&gt;*{fill:#0078D4!important;stroke:#003a6b!important;color:#ffffff!important;font-weight:bold!important;}#my-svg .pick span{fill:#0078D4!important;stroke:#003a6b!important;color:#ffffff!important;font-weight:bold!important;}#my-svg .pick tspan{fill:#ffffff!important;}</style><g><marker orient="auto" markerHeight="12" markerWidth="12" markerUnits="userSpaceOnUse" refY="5" refX="6" viewBox="0 0 10 10" class="marker flowchart" id="my-svg_flowchart-pointEnd"><path style="stroke-width: 1; stroke-dasharray: 1, 0;" class="arrowMarkerPath" d="M 0 0 L 10 5 L 0 10 z"/></marker><marker orient="auto" markerHeight="12" markerWidth="12" markerUnits="userSpaceOnUse" refY="5" refX="4.5" viewBox="0 0 10 10" class="marker flowchart" id="my-svg_flowchart-pointStart"><path style="stroke-width: 1; stroke-dasharray: 1, 0;" class="arrowMarkerPath" d="M 0 5 L 10 10 L 10 0 z"/></marker><marker orient="auto" markerHeight="11" markerWidth="11" markerUnits="userSpaceOnUse" refY="5" refX="11" viewBox="0 0 10 10" class="marker flowchart" id="my-svg_flowchart-circleEnd"><circle style="stroke-width: 1; stroke-dasharray: 1, 0;" class="arrowMarkerPath" r="5" cy="5" cx="5"/></marker><marker orient="auto" markerHeight="11" markerWidth="11" markerUnits="userSpaceOnUse" refY="5" refX="-1" viewBox="0 0 10 10" class="marker flowchart" id="my-svg_flowchart-circleStart"><circle style="stroke-width: 1; stroke-dasharray: 1, 0;" class="arrowMarkerPath" r="5" cy="5" cx="5"/></marker><marker orient="auto" markerHeight="11" markerWidth="11" markerUnits="userSpaceOnUse" refY="5.2" refX="12" viewBox="0 0 11 11" class="marker cross flowchart" id="my-svg_flowchart-crossEnd"><path style="stroke-width: 2; stroke-dasharray: 1, 0;" class="arrowMarkerPath" d="M 1,1 l 9,9 M 10,1 l -9,9"/></marker><marker orient="auto" markerHeight="11" markerWidth="11" markerUnits="userSpaceOnUse" refY="5.2" refX="-1" viewBox="0 0 11 11" class="marker cross flowchart" id="my-svg_flowchart-crossStart"><path style="stroke-width: 2; stroke-dasharray: 1, 0;" class="arrowMarkerPath" d="M 1,1 l 9,9 M 10,1 l -9,9"/></marker><g class="root"><g class="clusters"/><g class="edgePaths"><path marker-end="url(#my-svg_flowchart-pointEnd)" style="fill:none;" class="edge-thickness-normal edge-pattern-solid flowchart-link LS-Start LE-Q1" id="L-Start-Q1-0" d="M919.023,33L919.023,37.167C919.023,41.333,919.023,49.667,919.089,57.2C919.155,64.734,919.288,71.467,919.354,74.834L919.42,78.201"/><path marker-end="url(#my-svg_flowchart-pointEnd)" style="fill:none;" class="edge-thickness-normal edge-pattern-solid flowchart-link LS-Q1 LE-Q2" id="L-Q1-Q2-0" d="M745.297,390.82L654.354,425.442C563.412,460.063,381.526,529.305,290.583,607.98C199.641,686.656,199.641,774.766,199.641,862.875C199.641,950.984,199.641,1039.094,199.716,1091.281C199.791,1143.468,199.941,1159.732,200.016,1167.865L200.092,1175.997"/><path marker-end="url(#my-svg_flowchart-pointEnd)" style="fill:none;" class="edge-thickness-normal edge-pattern-solid flowchart-link LS-Q2 LE-CPS" id="L-Q2-CPS-0" d="M200.141,1580.578L200.057,1589.427C199.974,1598.276,199.807,1615.974,199.724,1670.88C199.641,1725.786,199.641,1817.901,199.641,1910.016C199.641,2002.13,199.641,2094.245,244.787,2147.042C289.932,2199.839,380.224,2213.318,425.37,2220.058L470.516,2226.798"/><path marker-end="url(#my-svg_flowchart-pointEnd)" style="fill:none;" class="edge-thickness-normal edge-pattern-solid flowchart-link LS-Q2 LE-Q3" id="L-Q2-Q3-0" d="M363.711,1417.008L527.761,1453.118C691.81,1489.229,1019.909,1561.45,1184.029,1602.428C1348.149,1643.405,1348.29,1653.139,1348.36,1658.006L1348.431,1662.872"/><path marker-end="url(#my-svg_flowchart-pointEnd)" style="fill:none;" class="edge-thickness-normal edge-pattern-solid flowchart-link LS-Q3 LE-FDY" id="L-Q3-FDY-0" d="M1184.433,1988.784L1115.145,2021.713C1045.858,2054.643,907.282,2120.501,846.245,2158.626C785.208,2196.751,801.709,2207.143,809.959,2212.339L818.21,2217.535"/><path marker-end="url(#my-svg_flowchart-pointEnd)" style="fill:none;" class="edge-thickness-normal edge-pattern-solid flowchart-link LS-Q3 LE-SDK" id="L-Q3-SDK-0" d="M1229.394,2033.746L1204.644,2059.181C1179.894,2084.617,1130.394,2135.488,1121.674,2166.309C1112.953,2197.13,1145.012,2207.901,1161.042,2213.286L1177.071,2218.671"/><path marker-end="url(#my-svg_flowchart-pointEnd)" style="fill:none;" class="edge-thickness-normal edge-pattern-solid flowchart-link LS-Q1 LE-Q4" id="L-Q1-Q4-0" d="M1050.412,434.158L1083.064,461.556C1115.715,488.954,1181.018,543.751,1213.74,576.015C1246.461,608.28,1246.602,618.014,1246.673,622.881L1246.744,627.747"/><path marker-end="url(#my-svg_flowchart-pointEnd)" style="fill:none;" class="edge-thickness-normal edge-pattern-solid flowchart-link LS-Q4 LE-Q5" id="L-Q4-Q5-0" d="M1109.242,956.125L1066.741,984.638C1024.239,1013.151,939.237,1070.177,896.736,1140.896C854.234,1211.615,854.234,1296.026,854.234,1380.438C854.234,1464.849,854.234,1549.26,854.312,1603.152C854.389,1657.043,854.544,1680.415,854.622,1692.1L854.699,1703.786"/><path marker-end="url(#my-svg_flowchart-pointEnd)" style="fill:none;" class="edge-thickness-normal edge-pattern-solid flowchart-link LS-Q5 LE-CPS" id="L-Q5-CPS-0" d="M761.922,2019.133L737.952,2047.004C713.982,2074.875,666.042,2130.617,633.821,2163.684C601.601,2196.751,585.1,2207.143,576.849,2212.339L568.599,2217.535"/><path marker-end="url(#my-svg_flowchart-pointEnd)" style="fill:none;" class="edge-thickness-normal edge-pattern-solid flowchart-link LS-Q5 LE-SDK" id="L-Q5-SDK-0" d="M953.739,2012.941L981.673,2041.844C1009.608,2070.747,1065.478,2128.553,1104.938,2162.754C1144.397,2196.955,1167.447,2207.55,1178.972,2212.848L1190.497,2218.146"/><path marker-end="url(#my-svg_flowchart-pointEnd)" style="fill:none;" class="edge-thickness-normal edge-pattern-solid flowchart-link LS-Q4 LE-Q6" id="L-Q4-Q6-0" d="M1384.399,956.125L1426.733,984.638C1469.068,1013.151,1553.737,1070.177,1596.142,1103.557C1638.547,1136.937,1638.688,1146.67,1638.759,1151.537L1638.829,1156.404"/><path marker-end="url(#my-svg_flowchart-pointEnd)" style="fill:none;" class="edge-thickness-normal edge-pattern-solid flowchart-link LS-Q6 LE-SDK" id="L-Q6-SDK-0" d="M1638.906,1600.172L1638.823,1605.755C1638.74,1611.339,1638.573,1622.505,1638.49,1674.146C1638.406,1725.786,1638.406,1817.901,1638.406,1910.016C1638.406,2002.13,1638.406,2094.245,1584.027,2147.046C1529.648,2199.847,1420.889,2213.335,1366.51,2220.079L1312.131,2226.823"/><path marker-end="url(#my-svg_flowchart-pointEnd)" style="fill:none;" class="edge-thickness-normal edge-pattern-solid flowchart-link LS-Q6 LE-Q7" id="L-Q6-Q7-0" d="M1457.532,1418.798L1285.485,1454.61C1113.438,1490.422,769.344,1562.047,597.376,1613.524C425.408,1665.002,425.566,1696.331,425.644,1711.996L425.723,1727.661"/><path marker-end="url(#my-svg_flowchart-pointEnd)" style="fill:none;" class="edge-thickness-normal edge-pattern-solid flowchart-link LS-Q7 LE-FDY" id="L-Q7-FDY-0" d="M540.953,1972.867L606.767,2008.449C672.581,2044.031,804.208,2115.195,861.03,2156C917.852,2196.805,899.868,2207.251,890.876,2212.474L881.884,2217.697"/><path marker-end="url(#my-svg_flowchart-pointEnd)" style="fill:none;" class="edge-thickness-normal edge-pattern-solid flowchart-link LS-Q7 LE-CPS" id="L-Q7-CPS-0" d="M507.562,2006.259L533.198,2036.276C558.835,2066.292,610.109,2126.326,622.709,2161.675C635.309,2197.024,609.235,2207.688,596.198,2213.021L583.161,2218.353"/></g><g class="edgeLabels"><g class="edgeLabel"><g transform="translate(0, 0)" class="label"><foreignObject height="0" width="0"><div style="display: inline-block; white-space: nowrap;" xmlns="http://www.w3.org/1999/xhtml"><span class="edgeLabel"></span></div></foreignObject></g></g><g transform="translate(199.640625, 862.875)" class="edgeLabel"><g transform="translate(-13.0546875, -9)" class="label"><foreignObject height="18" width="26.109375"><div style="display: inline-block; white-space: nowrap;" xmlns="http://www.w3.org/1999/xhtml"><span class="edgeLabel">Yes</span></div></foreignObject></g></g><g transform="translate(199.640625, 1910.015625)" class="edgeLabel"><g transform="translate(-13.0546875, -9)" class="label"><foreignObject height="18" width="26.109375"><div style="display: inline-block; white-space: nowrap;" xmlns="http://www.w3.org/1999/xhtml"><span class="edgeLabel">Yes</span></div></foreignObject></g></g><g transform="translate(1348.0078125, 1633.671875)" class="edgeLabel"><g transform="translate(-10.2265625, -9)" class="label"><foreignObject height="18" width="20.453125"><div style="display: inline-block; white-space: nowrap;" xmlns="http://www.w3.org/1999/xhtml"><span class="edgeLabel">No</span></div></foreignObject></g></g><g transform="translate(768.70703125, 2186.359375)" class="edgeLabel"><g transform="translate(-13.0546875, -9)" class="label"><foreignObject height="18" width="26.109375"><div style="display: inline-block; white-space: nowrap;" xmlns="http://www.w3.org/1999/xhtml"><span class="edgeLabel">Yes</span></div></foreignObject></g></g><g transform="translate(1080.89453125, 2186.359375)" class="edgeLabel"><g transform="translate(-10.2265625, -9)" class="label"><foreignObject height="18" width="20.453125"><div style="display: inline-block; white-space: nowrap;" xmlns="http://www.w3.org/1999/xhtml"><span class="edgeLabel">No</span></div></foreignObject></g></g><g transform="translate(1246.3203125, 598.546875)" class="edgeLabel"><g transform="translate(-10.2265625, -9)" class="label"><foreignObject height="18" width="20.453125"><div style="display: inline-block; white-space: nowrap;" xmlns="http://www.w3.org/1999/xhtml"><span class="edgeLabel">No</span></div></foreignObject></g></g><g transform="translate(854.234375, 1380.4375)" class="edgeLabel"><g transform="translate(-13.0546875, -9)" class="label"><foreignObject height="18" width="26.109375"><div style="display: inline-block; white-space: nowrap;" xmlns="http://www.w3.org/1999/xhtml"><span class="edgeLabel">Yes</span></div></foreignObject></g></g><g transform="translate(618.1015625, 2186.359375)" class="edgeLabel"><g transform="translate(-13.0546875, -9)" class="label"><foreignObject height="18" width="26.109375"><div style="display: inline-block; white-space: nowrap;" xmlns="http://www.w3.org/1999/xhtml"><span class="edgeLabel">Yes</span></div></foreignObject></g></g><g transform="translate(1121.34765625, 2186.359375)" class="edgeLabel"><g transform="translate(-10.2265625, -9)" class="label"><foreignObject height="18" width="20.453125"><div style="display: inline-block; white-space: nowrap;" xmlns="http://www.w3.org/1999/xhtml"><span class="edgeLabel">No</span></div></foreignObject></g></g><g transform="translate(1638.40625, 1127.203125)" class="edgeLabel"><g transform="translate(-10.2265625, -9)" class="label"><foreignObject height="18" width="20.453125"><div style="display: inline-block; white-space: nowrap;" xmlns="http://www.w3.org/1999/xhtml"><span class="edgeLabel">No</span></div></foreignObject></g></g><g transform="translate(1638.40625, 1910.015625)" class="edgeLabel"><g transform="translate(-13.0546875, -9)" class="label"><foreignObject height="18" width="26.109375"><div style="display: inline-block; white-space: nowrap;" xmlns="http://www.w3.org/1999/xhtml"><span class="edgeLabel">Yes</span></div></foreignObject></g></g><g transform="translate(425.25, 1633.671875)" class="edgeLabel"><g transform="translate(-10.2265625, -9)" class="label"><foreignObject height="18" width="20.453125"><div style="display: inline-block; white-space: nowrap;" xmlns="http://www.w3.org/1999/xhtml"><span class="edgeLabel">No</span></div></foreignObject></g></g><g transform="translate(935.8359375, 2186.359375)" class="edgeLabel"><g transform="translate(-13.0546875, -9)" class="label"><foreignObject height="18" width="26.109375"><div style="display: inline-block; white-space: nowrap;" xmlns="http://www.w3.org/1999/xhtml"><span class="edgeLabel">Yes</span></div></foreignObject></g></g><g transform="translate(661.3828125, 2186.359375)" class="edgeLabel"><g transform="translate(-10.2265625, -9)" class="label"><foreignObject height="18" width="20.453125"><div style="display: inline-block; white-space: nowrap;" xmlns="http://www.w3.org/1999/xhtml"><span class="edgeLabel">No</span></div></foreignObject></g></g></g><g class="nodes"><g transform="translate(919.0234375, 16.5)" data-id="Start" data-node="true" id="flowchart-Start-0" class="node default default flowchart-label"><rect height="33" width="129.09375" y="-16.5" x="-64.546875" ry="16.5" rx="16.5" style=""/><g transform="translate(-52.921875, -9)" style="" class="label"><rect/><foreignObject height="18" width="105.84375"><div style="display: inline-block; white-space: nowrap;" xmlns="http://www.w3.org/1999/xhtml"><span class="nodeLabel">New agent ask</span></div></foreignObject></g></g><g transform="translate(919.0234375, 323.7734375)" data-id="Q1" data-node="true" id="flowchart-Q1-1" class="node default default flowchart-label"><polygon style="" transform="translate(-240.7734375,240.7734375)" class="label-container" points="240.7734375,0 481.546875,-240.7734375 240.7734375,-481.546875 0,-240.7734375"/><g transform="translate(-216.7734375, -9)" style="" class="label"><rect/><foreignObject height="18" width="433.546875"><div style="display: inline-block; white-space: nowrap;" xmlns="http://www.w3.org/1999/xhtml"><span class="nodeLabel">Is the experience primarily knowledge Q&amp;A + simple actions?</span></div></foreignObject></g></g><g transform="translate(199.640625, 1380.4375)" data-id="Q2" data-node="true" id="flowchart-Q2-3" class="node default default flowchart-label"><polygon style="" transform="translate(-199.640625,199.640625)" class="label-container" points="199.640625,0 399.28125,-199.640625 199.640625,-399.28125 0,-199.640625"/><g transform="translate(-175.640625, -9)" style="" class="label"><rect/><foreignObject height="18" width="351.28125"><div style="display: inline-block; white-space: nowrap;" xmlns="http://www.w3.org/1999/xhtml"><span class="nodeLabel">Maker / power user will own day-to-day changes?</span></div></foreignObject></g></g><g transform="translate(537.9140625, 2236.859375)" data-id="CPS" data-node="true" id="flowchart-CPS-5" class="node default pick flowchart-label"><rect height="33" width="124.3125" y="-16.5" x="-62.15625" ry="0" rx="0" style="" class="basic label-container"/><g transform="translate(-54.65625, -9)" style="" class="label"><rect/><foreignObject height="18" width="109.3125"><div style="display: inline-block; white-space: nowrap;" xmlns="http://www.w3.org/1999/xhtml"><span class="nodeLabel">Copilot Studio</span></div></foreignObject></g></g><g transform="translate(1348.0078125, 1910.015625)" data-id="Q3" data-node="true" id="flowchart-Q3-7" class="node default default flowchart-label"><polygon style="" transform="translate(-242.34375,242.34375)" class="label-container" points="242.34375,0 484.6875,-242.34375 242.34375,-484.6875 0,-242.34375"/><g transform="translate(-218.34375, -9)" style="" class="label"><rect/><foreignObject height="18" width="436.6875"><div style="display: inline-block; white-space: nowrap;" xmlns="http://www.w3.org/1999/xhtml"><span class="nodeLabel">Hosted runtime, evaluations, and File Search are compelling?</span></div></foreignObject></g></g><g transform="translate(848.89453125, 2236.859375)" data-id="FDY" data-node="true" id="flowchart-FDY-9" class="node default pick flowchart-label"><rect height="33" width="183" y="-16.5" x="-91.5" ry="0" rx="0" style="" class="basic label-container"/><g transform="translate(-84, -9)" style="" class="label"><rect/><foreignObject height="18" width="168"><div style="display: inline-block; white-space: nowrap;" xmlns="http://www.w3.org/1999/xhtml"><span class="nodeLabel">Foundry hosted agent</span></div></foreignObject></g></g><g transform="translate(1231.20703125, 2236.859375)" data-id="SDK" data-node="true" id="flowchart-SDK-11" class="node default pick flowchart-label"><rect height="33" width="151.328125" y="-16.5" x="-75.6640625" ry="0" rx="0" style="" class="basic label-container"/><g transform="translate(-68.1640625, -9)" style="" class="label"><rect/><foreignObject height="18" width="136.328125"><div style="display: inline-block; white-space: nowrap;" xmlns="http://www.w3.org/1999/xhtml"><span class="nodeLabel">M365 Agents SDK</span></div></foreignObject></g></g><g transform="translate(1246.3203125, 862.875)" data-id="Q4" data-node="true" id="flowchart-Q4-13" class="node default default flowchart-label"><polygon style="" transform="translate(-230.328125,230.328125)" class="label-container" points="230.328125,0 460.65625,-230.328125 230.328125,-460.65625 0,-230.328125"/><g transform="translate(-206.328125, -9)" style="" class="label"><rect/><foreignObject height="18" width="412.65625"><div style="display: inline-block; white-space: nowrap;" xmlns="http://www.w3.org/1999/xhtml"><span class="nodeLabel">Long-running, multi-actor workflow with proactive nudges?</span></div></foreignObject></g></g><g transform="translate(854.234375, 1910.015625)" data-id="Q5" data-node="true" id="flowchart-Q5-15" class="node default default flowchart-label"><polygon style="" transform="translate(-201.4296875,201.4296875)" class="label-container" points="201.4296875,0 402.859375,-201.4296875 201.4296875,-402.859375 0,-201.4296875"/><g transform="translate(-177.4296875, -9)" style="" class="label"><rect/><foreignObject height="18" width="354.859375"><div style="display: inline-block; white-space: nowrap;" xmlns="http://www.w3.org/1999/xhtml"><span class="nodeLabel">Approvals + Dataverse + Outlook fan-out cover it?</span></div></foreignObject></g></g><g transform="translate(1638.40625, 1380.4375)" data-id="Q6" data-node="true" id="flowchart-Q6-21" class="node default default flowchart-label"><polygon style="" transform="translate(-219.234375,219.234375)" class="label-container" points="219.234375,0 438.46875,-219.234375 219.234375,-438.46875 0,-219.234375"/><g transform="translate(-195.234375, -9)" style="" class="label"><rect/><foreignObject height="18" width="390.46875"><div style="display: inline-block; white-space: nowrap;" xmlns="http://www.w3.org/1999/xhtml"><span class="nodeLabel">Bespoke conversation logic or deep Graph integration?</span></div></foreignObject></g></g><g transform="translate(425.25, 1910.015625)" data-id="Q7" data-node="true" id="flowchart-Q7-25" class="node default default flowchart-label"><polygon style="" transform="translate(-177.5546875,177.5546875)" class="label-container" points="177.5546875,0 355.109375,-177.5546875 177.5546875,-355.109375 0,-177.5546875"/><g transform="translate(-153.5546875, -9)" style="" class="label"><rect/><foreignObject height="18" width="307.109375"><div style="display: inline-block; white-space: nowrap;" xmlns="http://www.w3.org/1999/xhtml"><span class="nodeLabel">Want model-led tool use with built-in evals?</span></div></foreignObject></g></g></g></g></g></svg>